PathFileType	4	(X/Y/Z)	N:\Shared_Data\Ergonomics\New Model Testing\10-03-21\Test Cal 01.trc																																																																																																																																																													
DataRate	CameraRate	NumFrames	NumMarkers	Units	OrigDataRate	OrigDataStartFrame	OrigNumFrames	
100	100	4	59	mm	100	1353	148
Frame#	Time	R_Knee_Med			R_Knee_Lat			R_Thigh_Upper			R_Thigh_Front			R_Thigh_Rear			L_Knee_Med			L_Knee_Lat			L_Thigh_Upper			L_Thigh_Front			L_Thigh_Rear			R_Ankle_Med			R_Ankle_Lat			R_Shank_Upper			R_Shank_Front			R_Shank_Rear			L_Ankle_Med			L_Ankle_Lat			L_Shank_Upper			L_Shank_Front			L_Shank_Rear			R_Heel			R_MTP1			R_MTP5			L_Heel			L_MTP1			L_MTP5			V_Sacral			R_Pelvis			R_ASIS			L_ASIS			L_Pelvis			Clavicle			Chest			R_Acromium			L_Acromium			R_Elbow			R_Arm_Parallel			R_Arm_Adjacent			L_Elbow			L_Arm_Parallel			L_Arm_Adjacent			R_Forearm2			R_Forearm1			R_Forearm_Base			L_Forearm2			L_Forearm1			L_Forearm_Base			R_Hand_Lower			R_Hand_Med			R_Hand_Lat			L_Hand_Lower			L_Hand_Med			L_Hand_Lat			LAJC			RAJC			LHJC			RHJC			LKJC			RKJC			
		X1	Y1	Z1	X2	Y2	Z2	X3	Y3	Z3	X4	Y4	Z4	X5	Y5	Z5	X6	Y6	Z6	X7	Y7	Z7	X8	Y8	Z8	X9	Y9	Z9	X10	Y10	Z10	X11	Y11	Z11	X12	Y12	Z12	X13	Y13	Z13	X14	Y14	Z14	X15	Y15	Z15	X16	Y16	Z16	X17	Y17	Z17	X18	Y18	Z18	X19	Y19	Z19	X20	Y20	Z20	X21	Y21	Z21	X22	Y22	Z22	X23	Y23	Z23	X24	Y24	Z24	X25	Y25	Z25	X26	Y26	Z26	X27	Y27	Z27	X28	Y28	Z28	X29	Y29	Z29	X30	Y30	Z30	X31	Y31	Z31	X32	Y32	Z32	X33	Y33	Z33	X34	Y34	Z34	X35	Y35	Z35	X36	Y36	Z36	X37	Y37	Z37	X38	Y38	Z38	X39	Y39	Z39	X40	Y40	Z40	X41	Y41	Z41	X42	Y42	Z42	X43	Y43	Z43	X44	Y44	Z44	X45	Y45	Z45	X46	Y46	Z46	X47	Y47	Z47	X48	Y48	Z48	X49	Y49	Z49	X50	Y50	Z50	X51	Y51	Z51	X52	Y52	Z52	X53	Y53	Z53	X54	Y54	Z54	X55	Y55	Z55	X56	Y56	Z56	X57	Y57	Z57	X58	Y58	Z58	X59	Y59	Z59	

1353	13.52	-30.426497	499.24078	10.899982	-42.704632	493.35217	145.34372	52.061226	706.30261	125.11317	43.220188	595.93219	69.639618	9.4670267	593.44421	136.0271	-32.786953	502.79556	-64.293221	-82.410103	521.57703	-194.1982	20.655733	720.97351	-184.66127	25.518341	612.20093	-134.03117	-28.525414	606.36139	-193.84932	-67.23632	96.378578	51.943157	-108.88255	78.991013	146.30824	-8.9939833	359.81332	109.66185	-34.773563	244.1277	82.105263	-48.368958	246.96678	143.87144	-83.292755	103.87379	-123.40488	-137.62169	73.102547	-203.83487	-46.452343	345.65323	-183.81047	-55.846329	231.10706	-148.55417	-98.303963	246.46536	-207.43465	-158.76126	51.25753	85.684669	59.965775	47.044163	92.845779	17.663063	27.60997	168.37267	-168.33885	56.305099	-153.05511	24.436493	58.509106	-154.00613	-2.9474812	19.917608	-230.93535	-207.15797	993.88037	-22.718094	-25.634228	1026.0115	182.97833	31.929892	995.38702	119.27557	15.839432	986.93054	-146.85548	-57.792301	1022.1326	-218.21446	38.341705	1540.0293	-24.793562	45.924171	1342.8977	-23.879078	-58.576515	1492.5671	167.09204	-93.858597	1502.0593	-182.38222	-126.71921	1153.8116	274.12851	-124.23608	1228.6033	267.95453	-41.563007	1230.1611	247.29137	-166.31136	1155.6129	-293.5575	-163.26814	1230.1964	-294.42438	-83.379753	1244.2262	-287.45322	-23.554928	1138.7552	272.28223	-0.70441145	1015.1586	287.41852	25.79311	921.75842	298.64072	-48.327911	1118.2197	-305.7724	-29.360321	1030.0769	-318.13531	-4.3856597	945.10431	-324.80777	34.340145	867.66028	308.02213	73.599762	830.06592	272.90039	12.823997	821.30212	324.97955	10.872685	884.4422	-328.49359	46.281849	843.09052	-311.58234	-11.159879	836.73499	-348.6893	-110.4572225	88.4881685	-163.619875	-88.059435	87.6847955	99.1256985	-48.32109901	898.245767	-102.0219439	-36.82072158	904.2898895	88.19061198	-57.598528	512.186295	-129.2457105	-36.5655645	496.296475	78.121851
1354	13.53	-30.551407	499.25427	10.921943	-42.749252	493.39719	145.46742	52.166245	706.25824	125.14017	43.221455	595.8653	69.692017	9.4717255	593.42358	136.09135	-32.538284	502.73502	-64.254234	-82.160858	521.55884	-194.08127	20.937193	720.93848	-184.61514	25.696232	612.12622	-133.98764	-28.262098	606.35272	-193.79294	-67.269142	96.366684	51.949146	-108.93275	78.969528	146.3033	-9.0772467	359.84842	109.66071	-34.834545	244.13261	82.097069	-48.378807	246.97316	143.88908	-83.269905	103.8846	-123.37354	-137.60112	73.119263	-203.81857	-46.310913	345.62949	-183.7692	-55.741516	231.08873	-148.54042	-98.26825	246.4863	-207.53395	-158.76874	51.259827	85.679649	59.942863	46.995548	92.906845	17.668951	27.564821	168.42557	-168.3134	56.323647	-153.04398	24.448235	58.493942	-154.00104	-2.939652	19.928459	-230.90437	-206.82471	993.92712	-22.595919	-25.226967	1026.0305	183.04771	32.267174	995.37982	119.3824	16.204538	986.89874	-146.79309	-57.431694	1022.1863	-218.09412	38.860695	1540.0308	-24.63394	46.633633	1342.8098	-23.889523	-58.087429	1492.5129	167.30901	-93.257584	1502.1079	-182.23439	-126.82329	1153.8263	274.20706	-124.22643	1228.5961	268.04422	-41.518978	1230.0609	247.47652	-166.20305	1155.8257	-293.55075	-163.06146	1230.421	-294.36124	-83.130013	1244.278	-287.42072	-23.710276	1138.5901	272.45023	-0.93792832	1015.1018	287.83682	25.284849	921.56213	298.8898	-48.326881	1118.1981	-305.76855	-29.520458	1030.0247	-318.14038	-4.7197866	945.02338	-324.83936	33.696083	867.40051	308.29971	72.919647	829.71295	273.11142	12.03706	821.02277	325.0372	10.367663	884.24744	-328.48972	45.56356	842.75	-311.55569	-11.841728	836.61346	-348.35846	-110.4355125	88.5019315	-163.596055	-88.100946	87.668106	99.126223	-47.99023575	898.2238969	-101.9501881	-36.50988819	904.2855263	88.29175839	-57.349571	512.14693	-129.167752	-36.6503295	496.32573	78.1946815
1355	13.54	-30.633165	499.2659	11.004916	-42.7757	493.42371	145.56937	52.308594	706.20728	125.20679	43.026489	595.46442	69.875679	9.487505	593.41833	136.14032	-32.29171	502.69467	-64.216179	-81.93531	521.54834	-194.02562	21.392908	720.91101	-184.56047	25.87715	612.06683	-133.93187	-28.013765	606.31818	-193.76772	-67.301735	96.377487	51.961861	-108.96164	78.946732	146.29947	-9.1344023	359.87936	109.66019	-34.889965	244.15466	82.097878	-48.401306	246.99283	143.90599	-83.255112	103.86406	-123.3561	-137.57353	73.149284	-203.80742	-46.155571	345.61346	-183.76451	-55.652122	231.06253	-148.5199	-98.1717	246.48782	-207.48933	-158.75363	51.251301	85.700905	59.927998	46.940826	92.969048	17.652575	27.53392	168.53271	-168.30708	56.339798	-153.02818	24.459566	58.474319	-154.00374	-2.9383419	19.90976	-230.93361	-206.54785	993.97852	-22.46279	-24.861191	1026.0682	183.10896	32.601223	995.36188	119.44852	16.476248	986.78558	-146.79645	-57.022438	1022.2147	-217.93039	39.394428	1540.0443	-24.493834	46.89011	1342.7861	-23.564035	-57.619801	1492.4779	167.52197	-92.706345	1502.1136	-182.05142	-126.88802	1153.8643	274.28491	-124.20026	1228.6055	268.10272	-41.495792	1229.9994	247.73474	-166.12119	1155.9983	-293.52258	-162.74962	1230.5862	-294.34116	-82.867142	1244.3411	-287.34183	-23.800117	1138.469	272.64792	-1.1527668	1015.0627	288.21439	24.792126	921.35431	299.09579	-48.29343	1118.2378	-305.67114	-29.665236	1030.0278	-318.12646	-5.0484796	944.94196	-324.8974	33.05304	867.13464	308.43237	72.164268	829.30029	273.30875	11.342431	820.85803	325.20337	9.8620501	884.05658	-328.54092	44.857212	842.4342	-311.56931	-12.505676	836.53815	-348.34543	-110.414321	88.506672	-163.58176	-88.1316875	87.6621095	99.1306655	-47.76001027	898.138263	-101.8930289	-36.23535924	904.2678145	88.39442065	-57.11351	512.121505	-129.1208995	-36.7044325	496.344805	78.287143
1356	13.55	-30.694883	499.23468	11.068022	-42.763596	493.41025	145.63249	52.4641	706.16779	125.22375	43.062836	595.38141	69.907089	9.5210476	593.38544	136.18291	-32.047234	502.65909	-64.191879	-81.734383	521.54413	-194.00751	21.649916	720.83081	-184.49271	26.039473	611.98352	-133.87592	-27.773558	606.27618	-193.76765	-67.33667	96.384354	51.956264	-108.99523	78.949638	146.30405	-9.151598	359.91049	109.65219	-34.946308	244.16278	82.121063	-48.406891	247.02341	143.92836	-83.235649	103.84894	-123.32706	-137.56346	73.160652	-203.79581	-46.034016	345.58548	-183.73962	-55.575474	231.08134	-148.41809	-98.089279	246.48978	-207.47562	-158.75508	51.279335	85.680161	59.904961	46.89106	93.020363	17.637329	27.481583	168.57954	-168.30684	56.354729	-153.02974	24.489815	58.474258	-153.99605	-2.937201	19.896757	-230.93326	-206.25867	993.91541	-22.031212	-24.496166	1026.1012	183.17812	32.947723	995.3252	119.53191	16.813993	986.75452	-146.64981	-56.674145	1022.2391	-217.74759	39.907806	1540.1252	-24.279045	47.585667	1342.6954	-23.569765	-57.178864	1492.448	167.69733	-92.127617	1502.1737	-181.923	-126.94593	1153.9036	274.37405	-124.15652	1228.6326	268.16022	-41.457531	1229.9174	247.95023	-166.06587	1156.1979	-293.5127	-162.74376	1230.8676	-294.24243	-82.60862	1244.4073	-287.27899	-23.885536	1138.3344	272.80209	-1.368125	1015.0833	288.70782	24.273283	921.104	299.30554	-48.335293	1118.2452	-305.65839	-29.820253	1030.0179	-318.16479	-5.3879614	944.88123	-324.91696	32.437931	866.85999	308.61099	71.494652	829.0177	273.46548	10.594982	820.65637	325.37122	9.3569803	883.90527	-328.57669	44.1213	842.10199	-311.50989	-13.17556	836.4646	-348.33737	-110.3995545	88.504796	-163.561435	-88.16595	87.666996	99.130157	-47.41461376	898.1135694	-101.7558143	-35.88349787	904.2392145	88.489855	-56.8908085	512.10161	-129.0996945	-36.7292395	496.322465	78.350256
